<?xml version="1.0" encoding="utf-8"?>
<!-- Generator: Adobe Illustrator 16.0.4, SVG Export Plug-In . SVG Version: 6.00 Build 0)  -->
<!DOCTYPE svg PUBLIC "-//W3C//DTD SVG 1.1//EN" "http://www.w3.org/Graphics/SVG/1.1/DTD/svg11.dtd">
<svg version="1.1" id="Layer_1" xmlns="http://www.w3.org/2000/svg" xmlns:xlink="http://www.w3.org/1999/xlink" x="0px" y="0px"
	 width="68.25px" height="14px" viewBox="-51 0.167 68.25 14" enable-background="new -51 0.167 68.25 14" xml:space="preserve">
<path fill="#FDC111" d="M10.167,9.967l3.71,2.7l-1.42-4.359l3.71-2.641h-4.55l-1.45-4.5l-1.45,4.5h-4.55l3.71,2.641l-1.42,4.359
	L10.167,9.967z"/>
<path fill="#FDC111" d="M-3.438,9.967l3.71,2.7l-1.42-4.359l3.71-2.641h-4.55l-1.45-4.5l-1.45,4.5h-4.55l3.71,2.641l-1.42,4.359
	L-3.438,9.967z"/>
<path fill="#FDC111" d="M-17.042,9.967l3.71,2.7l-1.42-4.359l3.71-2.641h-4.55l-1.45-4.5l-1.45,4.5h-4.55l3.71,2.641l-1.42,4.359
	L-17.042,9.967z"/>
<path fill="#FDC111" d="M-30.646,9.967l3.71,2.7l-1.42-4.359l3.71-2.641h-4.55l-1.45-4.5l-1.45,4.5h-4.55l3.71,2.641l-1.42,4.359
	L-30.646,9.967z"/>
<path fill="#FDC111" d="M-44.25,9.967l3.71,2.7l-1.42-4.359l3.71-2.641h-4.55l-1.45-4.5l-1.45,4.5h-4.55l3.71,2.641l-1.42,4.359
	L-44.25,9.967z"/>
<path fill="none" d="M0-1.333h18v18H0V-1.333z"/>
</svg>
